<svg width="172" height="40" viewBox="0 0 172 40" fill="none" xmlns="http://www.w3.org/2000/svg">
<path d="M82.371 20.969C79.6974 20.969 77.5215 22.9663 77.5215 25.4176C77.5215 27.8689 79.6974 29.8662 82.371 29.8662C85.0445 29.8662 87.2205 27.8689 87.2205 25.4176C87.2205 22.9663 85.0445 20.969 82.371 20.969ZM82.371 27.8689C80.9288 27.8689 79.7565 26.7712 79.7565 25.4176C79.7565 24.064 80.9288 22.9663 82.371 22.9663C83.8132 22.9663 84.9855 24.064 84.9855 25.4176C84.9855 26.7712 83.8132 27.8689 82.371 27.8689Z" fill="#0599D9"/>
<path d="M90.9071 18.4926H83.4852V17.1473H86.5468C87.4998 17.1473 88.2757 16.388 88.2757 15.4554C88.2757 15.2821 88.1323 15.15 87.9637 15.15H78.6189V12.5254H86.5552C87.5082 12.5254 88.2841 11.7661 88.2841 10.8335C88.2841 10.6601 88.1408 10.5281 87.9721 10.5281H76.7044C76.5272 10.5281 76.3923 10.6684 76.3923 10.8335V15.216C76.3923 16.2807 77.3622 17.1556 78.5598 17.1556H81.2587V18.5009H73.938C73.7609 18.5009 73.626 18.6412 73.626 18.8063V20.1928C73.626 20.3662 73.7694 20.4982 73.938 20.4982H89.4986C90.4517 20.4982 91.2276 19.7389 91.2276 18.8063C91.2276 18.6329 91.0842 18.5009 90.9155 18.5009L90.9071 18.4926Z" fill="#0599D9"/>
<path d="M139.782 20.969C137.109 20.969 134.933 22.9663 134.933 25.4176C134.933 27.8689 137.109 29.8662 139.782 29.8662C142.456 29.8662 144.632 27.8689 144.632 25.4176C144.632 22.9663 142.456 20.969 139.782 20.969ZM139.782 27.8689C138.34 27.8689 137.168 26.7712 137.168 25.4176C137.168 24.064 138.34 22.9663 139.782 22.9663C141.224 22.9663 142.397 24.064 142.397 25.4176C142.397 26.7712 141.224 27.8689 139.782 27.8689Z" fill="#0599D9"/>
<path d="M144.723 10H143.113C142.944 10 142.8 10.1403 142.8 10.3054V12.1954H139.098V11.0564C139.098 10.8831 138.955 10.7511 138.786 10.7511H130.419C130.242 10.7511 130.107 10.8914 130.107 11.0564V17.4859C130.107 18.5506 131.086 19.4254 132.275 19.4254H138.786C138.963 19.4254 139.098 19.2851 139.098 19.12V17.7912H142.8V20.812C142.8 20.9853 142.944 21.1174 143.113 21.1174C144.175 21.1174 145.035 20.2755 145.035 19.2356V10.3054C145.035 10.1321 144.892 10 144.723 10ZM136.863 17.4281H132.334V12.7566H136.863V17.4281ZM139.098 15.7939V14.201H142.8V15.7939H139.098Z" fill="#0599D9"/>
<path d="M120.645 20.969C117.972 20.969 115.796 22.9663 115.796 25.4176C115.796 27.8689 117.972 29.8662 120.645 29.8662C123.319 29.8662 125.495 27.8689 125.495 25.4176C125.495 22.9663 123.319 20.969 120.645 20.969ZM120.645 27.8689C119.203 27.8689 118.031 26.7712 118.031 25.4176C118.031 24.064 119.203 22.9663 120.645 22.9663C122.088 22.9663 123.26 24.064 123.26 25.4176C123.26 26.7712 122.088 27.8689 120.645 27.8689Z" fill="#0599D9"/>
<path d="M116.849 18.6329C117.195 18.9135 117.642 19.0621 118.114 19.0621C118.654 19.0621 119.169 18.8557 119.531 18.5008C119.59 18.4431 119.624 18.3688 119.616 18.2863C119.616 18.2037 119.574 18.1294 119.506 18.0799L115.559 14.8858C115.837 13.8872 115.955 12.773 115.955 11.5019V10.8252C115.955 10.6518 115.82 10.5198 115.643 10.5198H114.041C113.864 10.5198 113.729 10.6601 113.729 10.8252V11.5019C113.729 15.15 112.447 16.8089 110.22 18.4431C110.161 18.5008 110.119 18.5751 110.119 18.6577C110.119 18.7402 110.144 18.8227 110.195 18.8805C110.785 19.5243 112.017 19.7224 113.037 18.8392C113.729 18.2367 114.277 17.593 114.699 16.8997L116.849 18.6412V18.6329Z" fill="#0599D9"/>
<path d="M126.355 10H124.745C124.567 10 124.433 10.1403 124.433 10.3054V14.1762H122.56V10.4539C122.56 10.2806 122.417 10.1486 122.248 10.1486H120.637C120.46 10.1486 120.325 10.2889 120.325 10.4539V19.9536C120.325 20.127 120.469 20.259 120.637 20.259C121.7 20.259 122.56 19.4172 122.56 18.3772V16.1736H124.433V20.812C124.433 20.9853 124.576 21.1174 124.745 21.1174C125.799 21.1174 126.668 20.2755 126.668 19.2356V10.3054C126.668 10.1321 126.524 10 126.355 10Z" fill="#0599D9"/>
<path d="M101.499 15.0674C101.499 12.4676 99.2893 10.3464 96.582 10.3464C93.8747 10.3464 91.665 12.4676 91.665 15.0674C91.665 17.6672 93.8747 19.7884 96.582 19.7884C99.2893 19.7884 101.499 17.6672 101.499 15.0674ZM96.582 17.791C95.0976 17.791 93.9 16.5695 93.9 15.0674C93.9 13.5653 95.1061 12.3438 96.582 12.3438C98.058 12.3438 99.264 13.5653 99.264 15.0674C99.264 16.5695 98.058 17.791 96.582 17.791Z" fill="#0599D9"/>
<path d="M101.509 20.969C98.8351 20.969 96.6592 22.9663 96.6592 25.4176C96.6592 27.8689 98.8351 29.8662 101.509 29.8662C104.182 29.8662 106.358 27.8689 106.358 25.4176C106.358 22.9663 104.182 20.969 101.509 20.969ZM101.509 27.8689C100.066 27.8689 98.8942 26.7712 98.8942 25.4176C98.8942 24.064 100.066 22.9663 101.509 22.9663C102.951 22.9663 104.123 24.064 104.123 25.4176C104.123 26.7712 102.951 27.8689 101.509 27.8689Z" fill="#0599D9"/>
<path d="M108.011 14.201C108.964 14.201 109.74 13.4417 109.74 12.5091C109.74 12.344 109.596 12.2037 109.428 12.2037H106.695V10.3137C106.695 10.1404 106.552 10.0083 106.383 10.0083H104.772C104.595 10.0083 104.46 10.1486 104.46 10.3137V20.8203C104.46 20.9936 104.603 21.1257 104.772 21.1257C105.826 21.1257 106.695 20.2838 106.695 19.2439V17.7913H108.011C108.964 17.7913 109.74 17.032 109.74 16.0993C109.74 15.926 109.596 15.794 109.428 15.794H106.695V14.201H108.011Z" fill="#0599D9"/>
<path d="M35.3418 22.8654H27.7951V21.4303C29.8018 20.9435 31.294 19.198 31.294 17.1334C31.294 15.9585 30.8138 14.8927 30.0334 14.0954H31.5427C32.5118 14.0954 33.3008 13.3233 33.3008 12.375C33.3008 12.1988 33.155 12.0645 32.9835 12.0645H27.8037V10.3105C27.8037 10.1343 27.6579 10 27.4864 10H25.8484C25.6769 10 25.5311 10.1427 25.5311 10.3105V12.0645H20.4542C20.2741 12.0645 20.1369 12.2072 20.1369 12.375V13.7849C20.1369 13.9612 20.2827 14.0954 20.4542 14.0954H23.3014C22.521 14.8927 22.0407 15.9585 22.0407 17.1334C22.0407 19.2063 23.5329 20.9435 25.5396 21.4303V22.8654H18.3788C18.1987 22.8654 18.0615 23.008 18.0615 23.1759V24.5858C18.0615 24.762 18.2073 24.8963 18.3788 24.8963H33.9182C34.8873 24.8963 35.6763 24.1242 35.6763 23.1759C35.6763 22.9997 35.5305 22.8654 35.359 22.8654H35.3418ZM24.2533 17.1334C24.2533 15.7823 25.3338 14.6829 26.6631 14.6829C27.9923 14.6829 29.0729 15.7823 29.0729 17.1334C29.0729 18.4846 27.9923 19.584 26.6631 19.584C25.3338 19.584 24.2533 18.4846 24.2533 17.1334Z" fill="#0599D9"/>
<path d="M73.0567 15.3544H70.098V10.3191C70.098 10.1428 69.9522 10.0085 69.7807 10.0085H68.1513C67.9712 10.0085 67.834 10.1512 67.834 10.3191V26.1217C67.834 26.298 67.9798 26.4323 68.1513 26.4323C69.2318 26.4323 70.1066 25.5762 70.1066 24.5188V17.3854H71.6245C72.5936 17.3854 73.3825 16.6133 73.3825 15.665C73.3825 15.4887 73.2367 15.3544 73.0652 15.3544H73.0567Z" fill="#0599D9"/>
<path d="M66.2471 20.3811L60.9729 16.4955C61.3588 15.3457 61.5475 14.0869 61.5475 12.719V10.8391C61.5475 10.6628 61.4017 10.5286 61.2302 10.5286H59.6008C59.4207 10.5286 59.2835 10.6712 59.2835 10.8391V12.719C59.2835 16.185 57.817 18.6187 54.5411 20.6077C54.3953 20.7084 54.3696 20.9014 54.4725 21.0441C55.0899 21.8749 56.342 22.0008 57.6798 20.9854C58.6746 20.2301 59.455 19.3824 60.0553 18.4425L63.6057 21.0525C63.9402 21.2959 64.369 21.4302 64.8063 21.4302C65.3895 21.4302 65.9383 21.2036 66.3071 20.8007C66.3671 20.7336 66.3929 20.6581 66.3843 20.5741C66.3843 20.4902 66.3328 20.4231 66.2642 20.3727L66.2471 20.3811Z" fill="#0599D9"/>
<path d="M46.6171 15.3543C46.437 15.3543 46.2998 15.4969 46.2998 15.6648V17.0747C46.2998 17.2509 46.4456 17.3852 46.6171 17.3852H49.9703V23.6375C49.9703 23.8137 50.116 23.948 50.2876 23.948C51.3681 23.948 52.2428 23.092 52.2428 22.0345V10.3105C52.2428 10.1343 52.0971 10 51.9255 10H50.2876C50.1075 10 49.9703 10.1427 49.9703 10.3105V15.3459H46.6171V15.3543Z" fill="#0599D9"/>
<path d="M52.1502 26.969H43.4886V23.268C43.4886 23.0918 43.3428 22.9575 43.1713 22.9575H41.5419C41.3618 22.9575 41.2246 23.1002 41.2246 23.268V27.0278C41.2246 28.1104 42.2108 29 43.4286 29H50.718C51.6871 29 52.4761 28.2279 52.4761 27.2795C52.4761 27.1033 52.3303 26.969 52.1588 26.969H52.1502Z" fill="#0599D9"/>
<path d="M44.9884 20.952C45.2885 21.1282 45.6316 21.2206 45.9918 21.2206C46.6435 21.2206 47.2438 20.9268 47.6126 20.4401C47.664 20.3729 47.6812 20.289 47.664 20.2135C47.6469 20.1296 47.5954 20.0624 47.5268 20.0205L42.4757 17.0412C42.7844 16.2187 42.9731 15.3292 43.0503 14.3641H45.4343C46.4034 14.3641 47.1924 13.592 47.1924 12.6436C47.1924 12.4674 47.0466 12.3331 46.8751 12.3331H43.0931V10.3274C43.0931 10.1511 42.9473 10.0168 42.7758 10.0168H41.1464C40.9663 10.0168 40.8291 10.1595 40.8291 10.3274V12.3331H37.1501C36.9786 12.3331 36.8328 12.4758 36.8328 12.6436V14.0535C36.8328 14.2298 36.9786 14.3641 37.1501 14.3641H40.7777C40.5118 17.016 39.1397 18.8707 36.2325 20.6163C36.0867 20.717 36.061 20.9184 36.1639 21.0527C36.9014 22.0262 38.1277 21.9087 39.0968 21.2289C40.1002 20.524 40.8891 19.7519 41.4895 18.8959L44.9884 20.9604V20.952Z" fill="#0599D9"/>
<path d="M17.083 20.0623H0.317305C0.137213 20.0623 0 20.2049 0 20.3728V21.7827C0 21.9589 0.145789 22.0932 0.317305 22.0932H7.6239V26.4908C7.6239 26.667 7.76969 26.8013 7.94121 26.8013C9.02176 26.8013 9.89649 25.9453 9.89649 24.8878V22.0932H15.6509C16.6199 22.0932 17.4089 21.3211 17.4089 20.3728C17.4089 20.1965 17.2631 20.0623 17.0916 20.0623H17.083Z" fill="#0599D9"/>
<path d="M4.70661 17.9392C6.1302 17.251 7.27078 16.4454 8.11121 15.539L13.2824 18.0147C13.5397 18.1406 13.8227 18.1994 14.1143 18.1994C14.8175 18.1994 15.4693 17.8469 15.8123 17.2762C15.8552 17.2007 15.8638 17.1168 15.8466 17.0412C15.8209 16.9657 15.7694 16.8986 15.6922 16.865L9.30325 13.8102C9.69774 12.971 9.90356 12.0646 9.90356 11.0911V10.5708C9.90356 10.4029 9.75777 10.2603 9.58626 10.2603H7.95685C7.77676 10.2603 7.63954 10.4029 7.63954 10.5708V11.0911C7.63954 13.6591 5.79574 15.5306 1.84229 16.8902C1.67935 16.9657 1.61074 17.1503 1.68792 17.3014C2.12529 18.2413 3.17154 18.6945 4.73234 17.9392H4.70661Z" fill="#0599D9"/>
</svg>
