<?xml version="1.0" encoding="utf-8"?>
<!-- Generator: Adobe Illustrator 13.0.0, SVG Export Plug-In . SVG Version: 6.00 Build 14948)  -->
<!DOCTYPE svg PUBLIC "-//W3C//DTD SVG 1.1//EN" "http://www.w3.org/Graphics/SVG/1.1/DTD/svg11.dtd">
<svg version="1.1" id="레이어_1" xmlns="http://www.w3.org/2000/svg" xmlns:xlink="http://www.w3.org/1999/xlink" x="0px"
	 y="0px" width="307.141px" height="33.509px" viewBox="0 0 307.141 33.509" enable-background="new 0 0 307.141 33.509"
	 xml:space="preserve">
<g>
	<g>
		<path fill="#E72510" d="M26.266,0.523h-4.618v3.461h0.005c2.544,0.002,4.61,2.063,4.613,4.609v1.092v3.194
			c0,0.601-0.487,1.088-1.09,1.088H11.408c-0.602,0-1.091-0.487-1.091-1.088V9.686V8.594c0.007-2.547,2.07-4.607,4.616-4.609h0.004
			V0.523h-4.62h-5.7H0v3.461h0.003c2.545,0.002,4.611,2.063,4.615,4.609v1.092V23.82v1.078c-0.004,2.55-2.07,4.612-4.615,4.612H0
			v3.463h4.618h0.001h5.699h4.62v-3.463h-0.004c-2.545,0-4.609-2.063-4.616-4.612v-1.09l0.003-3.194
			c0-0.601,0.486-1.091,1.088-1.091h13.768c0.601,0,1.09,0.49,1.09,1.091v3.206v1.078c-0.003,2.55-2.069,4.612-4.613,4.612h-0.005
			v3.463h4.618h5.703h4.618v-3.463h-0.004c-2.546,0-4.608-2.063-4.613-4.612v-1.09V9.686V8.594c0.005-2.547,2.067-4.607,4.613-4.609
			h0.004V0.523h-4.618H26.266z"/>
		<path fill="#E72510" d="M96.262,5.23c4.69,0,8.393,2.78,10.057,6.728h3.465V0.531h-3.461c0,0.795-0.645,1.438-1.438,1.438
			c-0.173,0-0.336-0.037-0.488-0.092l-0.007,0.01C102.05,0.688,99.34,0,96.354,0c-9.955,0-16.986,7.639-16.986,16.756v0.093
			c0,9.116,6.943,16.66,16.894,16.66c0.318,0,0.632-0.009,0.943-0.026c0.215-0.01,0.429-0.028,0.641-0.046
			c0.067-0.007,0.134-0.011,0.202-0.019c4.806-0.483,8.928-2.899,11.625-6.471l-3.65-3.649c-2.245,2.964-5.756,4.98-9.436,4.98
			v-0.005c-0.081,0-0.153,0.005-0.231,0.005c-6.436,0-11.014-5.229-11.014-11.522v-0.092C85.34,10.367,89.83,5.23,96.262,5.23"/>
		<path fill="#E72510" d="M58.347,0.52L46.24,0.523l0,0h-4.618v3.461h0.002c2.546,0.002,4.611,2.063,4.616,4.609v1.092v14.133v1.08
			c-0.005,2.55-2.07,4.612-4.616,4.612h-0.002v3.462h4.618v-0.002l12.106-0.001c10.196,0,17.246-7.093,17.246-16.226v-0.092
			C75.593,7.52,68.543,0.52,58.347,0.52 M69.61,16.837c0,6.353-4.45,10.939-11.264,10.939H51.95V5.713h6.396
			c6.813,0,11.264,4.684,11.264,11.031V16.837z"/>
	</g>
	<g>
		<path fill="#535557" d="M238.405,29.717h-13.367v-3.882h13.367V29.717z M238.405,22.509h-13.367v-3.658h-4.222v14.191h21.701
			V18.851h-4.111V22.509z"/>
		<path fill="#535557" d="M228.659,10.575c-0.234,0.609-0.553,1.14-0.953,1.589c-0.449,0.445-0.959,0.8-1.529,1.063
			c-0.572,0.262-1.211,0.395-1.906,0.395c-0.672,0-1.293-0.133-1.865-0.395c-0.574-0.263-1.061-0.617-1.458-1.063
			c-0.422-0.449-0.746-0.979-0.971-1.589c-0.221-0.609-0.336-1.262-0.336-1.964c0-0.695,0.115-1.347,0.336-1.96
			c0.225-0.609,0.563-1.136,1.01-1.586c0.396-0.423,0.89-0.761,1.474-1.008c0.584-0.252,1.215-0.375,1.889-0.375
			s1.291,0.123,1.863,0.375c0.574,0.247,1.074,0.585,1.494,1.008c0.4,0.45,0.719,0.977,0.953,1.586
			c0.242,0.613,0.354,1.265,0.354,1.96C229.012,9.313,228.901,9.966,228.659,10.575 M238.368,7.156h-5.393
			c-0.15-0.896-0.436-1.735-0.857-2.521c-0.426-0.784-0.949-1.476-1.57-2.075c-0.82-0.719-1.762-1.293-2.824-1.719
			c-1.057-0.42-2.184-0.634-3.375-0.634c-1.174,0-2.293,0.214-3.363,0.634c-1.073,0.426-2.019,1-2.84,1.719
			c-0.82,0.751-1.477,1.639-1.958,2.674c-0.485,1.033-0.731,2.146-0.731,3.342c0,1.194,0.246,2.303,0.731,3.324
			c0.481,1.021,1.138,1.893,1.958,2.616c0.821,0.743,1.767,1.331,2.84,1.756c1.07,0.42,2.189,0.632,3.363,0.632
			c1.191,0,2.318-0.212,3.375-0.632c1.063-0.425,2.004-1.013,2.824-1.756c0.598-0.526,1.094-1.134,1.49-1.831
			c0.4-0.697,0.689-1.457,0.863-2.279h5.467v6.986h4.148V0.471h-4.148V7.156z"/>
		<polygon fill="#535557" points="191.749,21.689 187.568,21.689 187.568,33.042 209.679,33.042 209.679,29.719 191.749,29.719 		
			"/>
		<polygon fill="#535557" points="208.896,0.508 204.819,0.508 204.819,24.639 208.896,24.639 208.896,10.743 213.527,10.743 
			213.527,7.156 208.896,7.156 		"/>
		<path fill="#535557" d="M190.123,14.031c0.638-0.773,1.176-1.582,1.626-2.432c0.449,0.85,0.991,1.658,1.623,2.432
			c0.64,0.769,1.329,1.482,2.073,2.129c0.776,0.672,1.569,1.277,2.396,1.811c0.819,0.535,1.643,0.992,2.458,1.363l1.88-2.808
			c-1.086-0.501-2.088-1.099-2.997-1.805c-1.07-0.836-2.002-1.785-2.801-2.858c-0.747-1.046-1.332-2.197-1.759-3.455
			c-0.417-1.256-0.633-2.596-0.633-4.014V1.141V0.975h-4.48v0.166v3.254c0,1.418-0.209,2.758-0.635,4.014
			c-0.425,1.258-1.004,2.409-1.753,3.455c-0.798,1.073-1.73,2.022-2.804,2.858c-0.905,0.706-1.908,1.304-2.993,1.805l1.873,2.808
			c0.822-0.371,1.646-0.828,2.467-1.363c0.822-0.533,1.619-1.139,2.389-1.811C188.801,15.514,189.492,14.8,190.123,14.031"/>
		<path fill="#535557" d="M175.782,10.743h-4.639V0.471h-3.847V20.83c-0.843,0.148-1.774,0.266-2.782,0.352
			c-1.006,0.091-1.88,0.132-2.634,0.132h-5.151V4.467h6.571V1.141h-10.642v23.496h8.663c0.872,0,1.874-0.068,3.008-0.204
			c1.13-0.137,2.123-0.28,2.966-0.429v9.038h3.847V14.441h4.639v18.601h3.844V0.471h-3.844V10.743z"/>
		<polygon fill="#535557" points="131.683,22.692 127.572,22.692 127.572,33.042 149.833,33.042 149.833,29.719 131.683,29.719 		
			"/>
		<path fill="#535557" d="M126.902,12.206c0-0.656,0.108-1.271,0.317-1.842c0.209-0.576,0.526-1.073,0.945-1.495
			c0.377-0.397,0.838-0.711,1.385-0.949c0.55-0.23,1.142-0.35,1.775-0.35c0.632,0,1.226,0.119,1.774,0.35
			c0.549,0.238,1.01,0.552,1.384,0.949c0.42,0.422,0.738,0.919,0.948,1.495c0.209,0.571,0.314,1.186,0.314,1.842
			c0,0.652-0.105,1.268-0.314,1.841c-0.21,0.572-0.515,1.071-0.913,1.49c-0.374,0.421-0.828,0.755-1.371,1.002
			c-0.536,0.244-1.119,0.369-1.754,0.369h-0.139c-0.629,0-1.215-0.125-1.757-0.369c-0.535-0.247-0.993-0.581-1.365-1.002
			c-0.399-0.419-0.703-0.918-0.912-1.49C127.011,13.474,126.902,12.858,126.902,12.206 M144.9,14.439h-5.48
			c0.229-0.717,0.35-1.472,0.35-2.273c0-0.462-0.047-0.911-0.125-1.348h5.255V14.439z M131.325,20.082
			c1.113,0,2.177-0.2,3.193-0.603c1.018-0.403,1.916-0.958,2.698-1.668c0.11-0.097,0.212-0.203,0.313-0.305h7.371v7.13h4.147V0.473
			H144.9v7.318h-6.523c-0.337-0.485-0.719-0.934-1.161-1.337c-0.191-0.167-0.394-0.327-0.598-0.479h4.046h0.02V2.84h-7.139V0h-4.071
			v2.84h-7.486v3.135h0.394h3.649c-0.205,0.152-0.402,0.313-0.594,0.479c-0.782,0.711-1.401,1.557-1.865,2.536
			c-0.459,0.982-0.69,2.045-0.69,3.176c0,1.141,0.231,2.189,0.69,3.161c0.463,0.971,1.083,1.798,1.865,2.484
			c0.777,0.71,1.681,1.265,2.695,1.668C129.149,19.882,130.212,20.082,131.325,20.082"/>
		<path fill="#535557" d="M245.907,1.141v3.326h7.918c0.146,2.04,0.078,3.974-0.207,5.792c-0.287,1.816-0.803,3.511-1.549,5.081
			c-0.773,1.592-1.775,3.063-3.004,4.405c-1.053,1.144-2.287,2.195-3.684,3.18L247.1,25.5c2.191-1.521,4.01-3.079,5.453-4.67
			c1.445-1.596,2.592-3.353,3.436-5.27c0.824-1.894,1.377-4.016,1.666-6.367c0.283-2.352,0.393-5.037,0.314-8.053H245.907z"/>
		<polygon fill="#535557" points="269.211,10.743 265.221,10.743 265.221,0.471 261.37,0.471 261.37,33.042 265.221,33.042 
			265.221,14.441 269.211,14.441 269.211,33.042 273.059,33.042 273.059,0.471 269.211,0.471 		"/>
		<polygon fill="#535557" points="285.067,27.027 302.545,27.027 302.545,18.064 280.959,18.064 280.959,21.274 298.479,21.274 
			298.479,23.964 280.959,23.964 280.959,33.042 303.333,33.042 303.333,29.756 285.067,29.756 		"/>
		<polygon fill="#535557" points="302.545,7.164 302.545,0.471 298.479,0.471 298.479,16.46 302.545,16.46 302.545,10.743 
			307.141,10.743 307.141,7.164 		"/>
		<path fill="#535557" d="M289.163,12.462h-7.695V8.313h7.695V12.462z M293.27,0.975h-4.107v4.091h-7.695V0.975h-4.068v14.734
			h15.871V0.975z"/>
	</g>
</g>
</svg>
