<?xml version="1.0" encoding="UTF-8" standalone="no"?>
<svg
   xmlns:dc="http://purl.org/dc/elements/1.1/"
   xmlns:cc="http://creativecommons.org/ns#"
   xmlns:rdf="http://www.w3.org/1999/02/22-rdf-syntax-ns#"
   xmlns:svg="http://www.w3.org/2000/svg"
   xmlns="http://www.w3.org/2000/svg"
   xmlns:sodipodi="http://sodipodi.sourceforge.net/DTD/sodipodi-0.dtd"
   xmlns:inkscape="http://www.inkscape.org/namespaces/inkscape"
   width="200.39999pt"
   height="36.522057pt"
   viewBox="0 0 200.39999 36.522057"
   version="1.1"
   id="svg2"
   inkscape:version="0.91 r13725"
   sodipodi:docname="samsung life logo.svg">
  <metadata
     id="metadata4248">
    <rdf:RDF>
      <cc:Work
         rdf:about="">
        <dc:format>image/svg+xml</dc:format>
        <dc:type
           rdf:resource="http://purl.org/dc/dcmitype/StillImage" />
        <dc:title></dc:title>
      </cc:Work>
    </rdf:RDF>
  </metadata>
  <sodipodi:namedview
     pagecolor="#ffffff"
     bordercolor="#666666"
     borderopacity="1"
     objecttolerance="10"
     gridtolerance="10"
     guidetolerance="10"
     inkscape:pageopacity="0"
     inkscape:pageshadow="2"
     inkscape:window-width="640"
     inkscape:window-height="480"
     id="namedview4246"
     showgrid="false"
     fit-margin-top="1"
     fit-margin-bottom="1"
     fit-margin-left="1"
     fit-margin-right="1"
     inkscape:zoom="1.2699335"
     inkscape:cx="52.814109"
     inkscape:cy="82.027143"
     inkscape:window-x="0"
     inkscape:window-y="0"
     inkscape:window-maximized="0"
     inkscape:current-layer="svg2" />
  <defs
     id="defs4">
    <clipPath
       id="clip2">
      <path
         d="m 421.03125,780.77734 142.48828,0 0,25.58203 -142.48828,0 z"
         id="path1476"
         inkscape:connector-curvature="0" />
    </clipPath>
  </defs>
  <g
     id="g8926"
     transform="matrix(1.5460816,0,0,1.5460816,-662.42,-1206.1455)">
    <path
       style="fill:#2347a3;fill-opacity:1;fill-rule:nonzero;stroke:none"
       d="m 441.36719,787.77344 -1.53125,0 0,-2.89844 -1.8086,0 0,7.35547 1.8086,0 0,-2.94922 1.53125,0 0,-1.50781"
       id="path1552"
       inkscape:connector-curvature="0" />
    <path
       style="fill:#2347a3;fill-opacity:1;fill-rule:nonzero;stroke:none"
       d="m 431.33984,798.85547 8.4961,0 0,-6.01953 -8.4961,0 z m 1.73047,-4.55078 5.02735,0 0,3.08984 -5.02735,0 z"
       id="path1554"
       inkscape:connector-curvature="0" />
    <path
       style="fill:#2347a3;fill-opacity:1;fill-rule:nonzero;stroke:none"
       d="m 432.92578,788.78906 c 0.53125,1.70313 2.89063,3.25781 2.89063,3.25781 l 0.93359,-1.27343 c -3.22656,-1.65235 -2.98438,-5.63282 -2.98438,-5.63282 l -1.67968,0 c 0,0 0.23828,3.98047 -2.98828,5.63282 l 0.93359,1.27343 c 0,0 2.35547,-1.55468 2.89453,-3.25781"
       id="path1556"
       inkscape:connector-curvature="0" />
    <path
       style="fill:#2347a3;fill-opacity:1;fill-rule:nonzero;stroke:none"
       d="m 450.26562,792.23047 1.77735,0 0,-7.35547 -1.8086,0 0,2.90625 -2.26953,0 0,1.5 2.30078,0 0,2.94922"
       id="path1558"
       inkscape:connector-curvature="0" />
    <path
       style="fill:#2347a3;fill-opacity:1;fill-rule:nonzero;stroke:none"
       d="m 447.59766,792.42578 c -2.60938,0 -4.71485,1.52344 -4.71485,3.40234 0,1.88672 2.10547,3.41016 4.71485,3.41016 2.59765,0 4.70312,-1.52344 4.70312,-3.41016 0,-1.8789 -2.10547,-3.40234 -4.70312,-3.40234 z m 0,5.30859 c -1.625,0 -2.92579,-0.85156 -2.92579,-1.90625 0,-1.04687 1.30079,-1.90234 2.92579,-1.90234 1.61328,0 2.92187,0.85547 2.92187,1.90234 0,1.05469 -1.30859,1.90625 -2.92187,1.90625"
       id="path1560"
       inkscape:connector-curvature="0" />
    <path
       style="fill:#2347a3;fill-opacity:1;fill-rule:nonzero;stroke:none"
       d="m 444.91016,788.78906 c 0.53125,1.70313 2.6914,3.13281 2.6914,3.13281 l 0.9336,-1.28515 c -3.02735,-1.51563 -2.79688,-5.4961 -2.79688,-5.4961 l -1.67187,0 c 0,0 0.24218,3.98047 -2.78516,5.4961 l 0.92969,1.28515 c 0,0 2.16406,-1.42968 2.69922,-3.13281"
       id="path1562"
       inkscape:connector-curvature="0" />
    <path
       style="fill:#2347a3;fill-opacity:1;fill-rule:nonzero;stroke:none"
       d="m 459.49219,792.42578 c -2.59766,0 -4.71094,1.52344 -4.71094,3.40234 0,1.88672 2.11328,3.41016 4.71094,3.41016 2.60937,0 4.71093,-1.52344 4.71093,-3.41016 0,-1.8789 -2.10156,-3.40234 -4.71093,-3.40234 z m 0,5.30859 c -1.61328,0 -2.92578,-0.85156 -2.92578,-1.90625 0,-1.04687 1.3125,-1.90234 2.92578,-1.90234 1.625,0 2.92578,0.85547 2.92578,1.90234 0,1.05469 -1.30078,1.90625 -2.92578,1.90625"
       id="path1564"
       inkscape:connector-curvature="0" />
    <path
       style="fill:#2347a3;fill-opacity:1;fill-rule:nonzero;stroke:none"
       d="m 461.88672,789.28125 0.4375,0 0,2.94922 1.65234,0 0,-7.35547 -1.6875,0 0,2.90625 -0.36719,0 0,-2.90625 -1.62109,0 0,7.35547 1.58594,0 0,-2.94922"
       id="path1566"
       inkscape:connector-curvature="0" />
    <path
       style="fill:#2347a3;fill-opacity:1;fill-rule:nonzero;stroke:none"
       d="m 456.375,788.78906 c 0.50781,1.70313 2.58594,3.13281 2.58594,3.13281 l 0.8789,-1.28515 c -2.89843,-1.51563 -2.67187,-5.4961 -2.67187,-5.4961 l -1.59766,0 c 0,0 0.22656,3.98047 -2.67187,5.4961 l 0.88672,1.28515 c 0,0 2.07421,-1.42968 2.58984,-3.13281"
       id="path1568"
       inkscape:connector-curvature="0" />
    <path
       style="fill:#2347a3;fill-opacity:1;fill-rule:nonzero;stroke:none"
       d="m 466.00781,791.50391 6.26172,0 0,-6.22266 -6.26172,0 z m 1.67578,-4.8711 2.91407,0 0,3.35156 -2.91407,0 z"
       id="path1570"
       inkscape:connector-curvature="0" />
    <path
       style="fill:#2347a3;fill-opacity:1;fill-rule:nonzero;stroke:none"
       d="m 474.09766,792.23047 1.71875,0 0,-7.35547 -1.75,0 0,1.39453 -1.39454,0 0,1.42188 1.42579,0 0,1.14843 -1.42579,0 0,1.42578 1.42579,0 0,1.96485"
       id="path1572"
       inkscape:connector-curvature="0" />
    <g
       clip-path="url(#clip2)"
       id="g1574"
       style="clip-rule:nonzero">
      <path
         style="fill:#2347a3;fill-opacity:1;fill-rule:nonzero;stroke:none"
         d="m 471.34766,792.42578 c -2.60547,0 -4.70704,1.52344 -4.70704,3.40234 0,1.88672 2.10157,3.41016 4.70704,3.41016 2.60156,0 4.71093,-1.52344 4.71093,-3.41016 0,-1.8789 -2.10937,-3.40234 -4.71093,-3.40234 z m 0,5.30859 c -1.6211,0 -2.92969,-0.85156 -2.92969,-1.90625 0,-1.04687 1.30859,-1.90234 2.92969,-1.90234 1.61718,0 2.92968,0.85547 2.92968,1.90234 0,1.05469 -1.3125,1.90625 -2.92968,1.90625"
         id="path1576"
         inkscape:connector-curvature="0" />
      <path
         style="fill:#2347a3;fill-opacity:1;fill-rule:nonzero;stroke:none"
         d="m 557.38281,785.99609 c -0.9375,-5.28515 -16.80859,-6.92968 -35.45703,-3.68359 -8.14844,1.42187 -15.5,3.54297 -21.10547,5.92578 0.3086,-0.0742 0.64844,-0.11328 1.00781,-0.11328 0.99219,0 2.35547,0.23437 2.35547,1.76562 l 0,0.48829 -1.73828,0 0,-0.4336 c 0,-0.38281 -0.23047,-0.63281 -0.64844,-0.63281 -0.4414,0 -0.59765,0.25 -0.64843,0.46875 -0.0117,0.0781 -0.0195,0.22656 0.0117,0.36719 0.19921,0.82031 2.86718,1.25781 3.14843,2.71875 0.0274,0.14843 0.0899,0.54687 0.008,1.14843 -0.16797,1.16407 -1.21485,1.60157 -2.46875,1.60157 -1.30469,0 -2.54688,-0.47266 -2.54688,-2.03516 l 0,-0.53906 1.875,0 0,0.67969 c 0,0.3789 0.27344,0.6289 0.70703,0.6289 0.47266,0 0.6211,-0.23437 0.6836,-0.46094 0.0312,-0.13671 0.0508,-0.35937 -0.0195,-0.52343 -0.35937,-0.91016 -2.83984,-1.31641 -3.14843,-2.75 -0.0742,-0.35547 -0.0625,-0.625 -0.0156,-0.9375 0.082,-0.50782 0.33594,-0.85938 0.69141,-1.10938 -6.75391,2.98047 -10.75391,6.32422 -10.25391,9.19141 0.91797,5.27734 16.78125,6.92969 35.42969,3.67578 8.33984,-1.44922 15.80469,-3.625 21.45312,-6.07031 -0.30859,0.0703 -0.625,0.10937 -0.95312,0.10937 -1.24219,0 -2.34766,-0.45312 -2.46875,-1.73437 -0.0156,-0.22657 -0.0195,-0.32422 -0.0195,-0.45703 l 0,-2.94141 c 0,-0.125 0.0156,-0.34766 0.0273,-0.45313 0.16016,-1.30859 1.21875,-1.73046 2.46094,-1.73046 1.23437,0 2.32031,0.41015 2.45312,1.73046 0.0195,0.21875 0.0156,0.45313 0.0156,0.45313 l 0.004,0.23828 -1.77344,0 0,-0.39844 c 0,0 0,-0.16406 -0.0195,-0.25781 -0.0352,-0.16016 -0.16016,-0.50781 -0.69922,-0.50781 -0.50391,0 -0.65625,0.32812 -0.69531,0.50781 -0.0195,0.0898 -0.0274,0.20703 -0.0274,0.32813 l 0,3.1914 c 0,0.0859 0,0.1875 0.0156,0.26563 0.0312,0.1875 0.21093,0.51172 0.72656,0.51172 0.49609,0 0.67187,-0.32422 0.69922,-0.51172 0.0195,-0.0781 0.0234,-0.17969 0.0234,-0.26563 l 0,-1.01562 -0.71875,0 0,-1.01563 2.47265,0 0,1.8711 c 0,0.13281 0,0.23046 -0.0234,0.45703 -0.0547,0.59375 -0.32812,1.00781 -0.71093,1.28125 6.51172,-2.94141 10.36328,-6.21485 9.89062,-9.02735 z m -48.0625,9.33985 -0.96484,-6.47657 -0.97266,6.47657 -1.89453,0 1.30469,-6.99219 3.10547,0 1.29297,6.99219 z m 9.28906,0 -0.0469,-6.47657 -1.20313,6.47657 -1.76953,0 -1.21093,-6.47657 -0.043,6.47657 -1.74219,0 0.14062,-6.99219 2.85547,0 0.87891,5.46484 0.88672,-5.46484 2.84765,0 0.15625,6.99219 z m 8.42188,-1.33985 c -0.16016,1.15235 -1.19922,1.58203 -2.44922,1.58203 -1.30078,0 -2.51562,-0.46484 -2.51562,-2.01562 l 0,-0.53125 1.85937,0 0,0.67187 c 0,0.38282 0.26563,0.63282 0.69922,0.63282 0.45703,0 0.61328,-0.2461 0.67187,-0.46875 0.0469,-0.13282 0.0547,-0.34766 -0.0156,-0.51563 -0.35547,-0.89453 -2.82031,-1.30078 -3.11719,-2.71875 -0.0703,-0.34375 -0.0625,-0.625 -0.0156,-0.9375 0.17968,-1.125 1.1914,-1.53125 2.41797,-1.53125 0.98437,0 2.33593,0.23828 2.33593,1.74219 l 0,0.49219 -1.72265,0 0,-0.4375 c 0,-0.375 -0.23828,-0.6211 -0.64844,-0.6211 -0.43359,0 -0.58203,0.23828 -0.63281,0.46094 -0.0195,0.0781 -0.0195,0.23047 0.0117,0.36328 0.1875,0.8125 2.82421,1.24219 3.10937,2.69531 0.0352,0.14454 0.0977,0.53516 0.0117,1.13672 z m 6.57812,-0.63672 c 0,0.13282 -0.008,0.39454 -0.0156,0.46485 -0.125,1.30078 -1.14844,1.72265 -2.4375,1.72265 -1.28906,0 -2.32422,-0.42187 -2.44141,-1.72265 -0.008,-0.0703 -0.0195,-0.33203 -0.0195,-0.46485 l 0,-5.01562 1.76953,0 0,5.17578 c 0,0.0859 0,0.19141 0.0156,0.26563 0.0352,0.17578 0.18359,0.50781 0.67578,0.50781 0.48047,0 0.63281,-0.33203 0.66797,-0.50781 0.0156,-0.0742 0.0156,-0.17969 0.0156,-0.26563 l 0,-5.17578 1.76953,0 z m 7.82422,1.90625 -2.5039,0 -1.76172,-5.8125 0.0977,5.8125 -1.71875,0 0,-6.92187 2.60938,0 1.63281,5.63281 -0.0976,-5.63281 1.74218,0 0,6.92187"
         id="path1578"
         inkscape:connector-curvature="0" />
    </g>
  </g>
</svg>
